<svg xmlns="http://www.w3.org/2000/svg" viewBox="0 0 512 512" role="img" aria-labelledby="title desc">
  <title id="title">Facturador POS Icon</title>
  <desc id="desc">Icono de punto de venta con terminal y pantalla</desc>
  <rect width="512" height="512" rx="104" fill="#0f172a"/>
  <rect x="140" y="88" width="232" height="336" rx="36" fill="#1f2a45"/>
  <rect x="164" y="120" width="184" height="116" rx="18" fill="#38bdf8"/>
  <rect x="164" y="254" width="184" height="48" rx="12" fill="#111827" opacity="0.6"/>
  <rect x="164" y="314" width="184" height="94" rx="18" fill="#101726"/>
  <g fill="#38bdf8">
    <rect x="180" y="328" width="32" height="32" rx="6"/>
    <rect x="224" y="328" width="32" height="32" rx="6"/>
    <rect x="268" y="328" width="32" height="32" rx="6"/>
    <rect x="312" y="328" width="32" height="32" rx="6"/>
    <rect x="180" y="368" width="32" height="32" rx="6"/>
    <rect x="224" y="368" width="32" height="32" rx="6"/>
    <rect x="268" y="368" width="32" height="32" rx="6"/>
    <rect x="312" y="368" width="32" height="32" rx="6"/>
  </g>
  <rect x="204" y="420" width="104" height="18" rx="9" fill="#38bdf8" opacity="0.7"/>
</svg>
